<?xml version="1.0" encoding="UTF-8" standalone="no"?>
<!-- Created with Inkscape (http://www.inkscape.org/) -->

<svg
   xmlns:dc="http://purl.org/dc/elements/1.1/"
   xmlns:cc="http://creativecommons.org/ns#"
   xmlns:rdf="http://www.w3.org/1999/02/22-rdf-syntax-ns#"
   xmlns:svg="http://www.w3.org/2000/svg"
   xmlns="http://www.w3.org/2000/svg"
   xmlns:sodipodi="http://sodipodi.sourceforge.net/DTD/sodipodi-0.dtd"
   xmlns:inkscape="http://www.inkscape.org/namespaces/inkscape"
   width="10cm"
   height="10cm"
   viewBox="0 0 354.33071 354.33072"
   id="svg2"
   version="1.1"
   inkscape:version="0.91 r13725"
   sodipodi:docname="icon.svg"
   inkscape:export-filename="/home/henning/dev/imgshr-android/res/drawable-xhdpi/ic_launcher.png"
   inkscape:export-xdpi="24.379999"
   inkscape:export-ydpi="24.379999">
  <defs
     id="defs4" />
  <sodipodi:namedview
     id="base"
     pagecolor="#ffffff"
     bordercolor="#666666"
     borderopacity="1.0"
     inkscape:pageopacity="0.0"
     inkscape:pageshadow="2"
     inkscape:zoom="0.98994949"
     inkscape:cx="17.199304"
     inkscape:cy="185.1036"
     inkscape:document-units="px"
     inkscape:current-layer="layer1"
     showgrid="false"
     fit-margin-top="0"
     fit-margin-left="0"
     fit-margin-right="0"
     fit-margin-bottom="0"
     inkscape:window-width="1920"
     inkscape:window-height="1025"
     inkscape:window-x="0"
     inkscape:window-y="31"
     inkscape:window-maximized="1"
     units="cm" />
  <metadata
     id="metadata7">
    <rdf:RDF>
      <cc:Work
         rdf:about="">
        <dc:format>image/svg+xml</dc:format>
        <dc:type
           rdf:resource="http://purl.org/dc/dcmitype/StillImage" />
        <dc:title></dc:title>
      </cc:Work>
    </rdf:RDF>
  </metadata>
  <g
     inkscape:label="Ebene 1"
     inkscape:groupmode="layer"
     id="layer1"
     transform="translate(-309.04535,17.604727)">
    <path
       style="fill:#000000"
       d=""
       id="path4149"
       inkscape:connector-curvature="0" />
    <path
       style="fill:#000000"
       d=""
       id="path4147"
       inkscape:connector-curvature="0" />
    <g
       id="g4174"
       transform="matrix(2.7873758,0,0,2.7873758,-116.4674,-1428.2011)">
      <path
         style="fill:#b40000;fill-opacity:1"
         d="m 162.02536,619.08901 c -2.41356,-2.41356 -2.49934,-4.15324 -2.48086,-50.3125 0.0105,-26.29688 0.44385,-48.48043 0.96294,-49.2968 2.33217,-3.66776 8.78751,-4.1407 56.51792,-4.1407 47.73041,0 54.18575,0.47294 56.51792,4.1407 0.51909,0.81637 0.95241,22.99992 0.96294,49.2968 0.0185,46.15926 -0.0673,47.89894 -2.48086,50.3125 -2.42063,2.42063 -4.16667,2.5 -55,2.5 -50.83333,0 -52.57937,-0.0794 -55,-2.5 z m 21.75148,-36.25 c 4.71511,-3.4375 9.32087,-6.25 10.235,-6.25 0.91414,0 6.03683,1.92931 11.38376,4.28736 5.34693,2.35806 9.91534,4.09373 10.152,3.85706 0.23667,-0.23667 -0.21244,-1.6313 -0.99803,-3.09918 -0.78558,-1.46788 -1.25303,-4.00774 -1.03877,-5.64412 0.43671,-3.33532 25.25073,-30.65112 27.84387,-30.65112 0.89762,0 5.2126,4.47731 9.58886,9.94959 4.37626,5.47227 8.37871,9.97227 8.89433,10 0.51563,0.0277 0.9375,-7.82459 0.9375,-17.44959 l 0,-17.5 -43.75,0 -43.75,0 0,29.375 c 0,16.15625 0.43392,29.375 0.96427,29.375 0.53034,0 4.82209,-2.8125 9.53721,-6.25 z m 4.6156,-19.10624 c -5.82515,-2.07778 -9.20799,-6.99839 -9.20799,-13.39376 0,-6.74511 3.47891,-11.40313 10.11996,-13.54991 4.61584,-1.49212 5.69507,-1.42391 9.88864,0.625 3.08143,1.50553 5.53273,3.99077 7.09712,7.19538 2.16859,4.44232 2.22644,5.3575 0.625,9.88676 -2.92992,8.28652 -10.54299,12.08284 -18.52273,9.23653 z"
         id="path4165"
         inkscape:connector-curvature="0" />
      <path
         style="fill:#d70000;fill-opacity:1"
         d="m 164.90685,619.09659 c -1.74688,-0.71694 -3.0186,-2.62566 -3.50075,-5.25427 -0.41647,-2.27057 -0.58814,-24.25862 -0.38148,-48.86234 0.32021,-38.12272 0.65285,-44.90908 2.25074,-45.91836 2.50078,-1.57958 105.00116,-1.57868 107.5,9.5e-4 1.61366,1.02006 1.875,7.89073 1.875,49.29336 0,37.78926 -0.34831,48.45664 -1.62389,49.73309 -1.27062,1.27148 -12.69197,1.68031 -52.5,1.87927 -27.99073,0.13989 -52.11021,-0.25223 -53.61962,-0.8717 z M 182.982,585.53951 c 4.6301,-3.32723 9.07832,-6.4275 9.88494,-6.88949 0.80662,-0.46199 6.66697,1.41556 13.02302,4.17233 6.35604,2.75676 11.83097,4.73777 12.16651,4.40223 0.33554,-0.33554 -0.38496,-2.81665 -1.6011,-5.51357 -1.21614,-2.69693 -2.00729,-5.48625 -1.75809,-6.19849 1.04391,-2.98366 24.37453,-27.4849 26.25761,-27.57509 1.14208,-0.0547 5.86084,4.61994 10.625,10.52567 4.71376,5.84325 9.00628,10.6245 9.53893,10.625 0.53266,5.1e-4 0.81391,-9.13971 0.625,-20.31158 l -0.34346,-20.3125 -44.375,0 -44.375,0 -0.33396,31.5625 c -0.22312,21.086 0.0944,31.5625 0.95664,31.5625 0.70983,0 5.07887,-2.72228 9.70896,-6.04951 z m 1.44721,-26.35434 c -8.05191,-8.0519 -2.54258,-21.34615 8.84615,-21.34615 7.30935,0 12.5,5.19065 12.5,12.5 0,7.30935 -5.19065,12.5 -12.5,12.5 -4.0722,0 -5.98053,-0.78822 -8.84615,-3.65385 z"
         id="path4161"
         inkscape:connector-curvature="0" />
    </g>
  </g>
</svg>
